<svg width="32" height="37" viewBox="0 0 32 37" fill="none" xmlns="http://www.w3.org/2000/svg">
<path fill-rule="evenodd" clip-rule="evenodd" d="M16 36C24.2843 36 31 29.2843 31 21C31 12.7157 24.2843 6 16 6C7.71573 6 1 12.7157 1 21C1 29.2843 7.71573 36 16 36ZM16 37C24.8366 37 32 29.8366 32 21C32 12.1634 24.8366 5 16 5C7.16344 5 0 12.1634 0 21C0 29.8366 7.16344 37 16 37Z" fill="black"/>
<path fill-rule="evenodd" clip-rule="evenodd" d="M16 21C21.5228 21 26 16.5228 26 11C26 5.47715 21.5228 1 16 1C10.4772 1 6 5.47715 6 11C6 16.5228 10.4772 21 16 21ZM16 22C22.0751 22 27 17.0751 27 11C27 4.92487 22.0751 0 16 0C9.92487 0 5 4.92487 5 11C5 17.0751 9.92487 22 16 22Z" fill="black"/>
<path d="M29 11C29 12.6569 27.6569 14 26 14C24.3431 14 23 12.6569 23 11C23 9.34315 24.3431 8 26 8C27.6569 8 29 9.34315 29 11Z" fill="black"/>
<path d="M9 11C9 12.6569 7.65685 14 6 14C4.34315 14 3 12.6569 3 11C3 9.34315 4.34315 8 6 8C7.65685 8 9 9.34315 9 11Z" fill="black"/>
</svg>
